<mxfile host="app.diagrams.net" modified="2021-08-31T10:01:45.279Z" agent="5.0 (Macintosh; Intel Mac OS X 10_15_7) AppleWebKit/537.36 (KHTML, like Gecko) Chrome/92.0.4515.131 Safari/537.36" etag="V1k2tIc9N_cwmNpNU6y5" version="15.0.3" type="github">
  <diagram id="_3MNf_Sm-s--1B_T6NlN" name="第 1 页">
    <mxGraphModel dx="2893" dy="1074" grid="1" gridSize="10" guides="1" tooltips="1" connect="1" arrows="1" fold="1" page="1" pageScale="1" pageWidth="827" pageHeight="1169" math="0" shadow="0">
      <root>
        <mxCell id="0" />
        <mxCell id="1" parent="0" />
        <mxCell id="thgTIYZggOXa3E_JFyeE-1" value="PusherViewManger" style="swimlane;fontStyle=1;align=center;verticalAlign=top;childLayout=stackLayout;horizontal=1;startSize=26;horizontalStack=0;resizeParent=1;resizeParentMax=0;resizeLast=0;collapsible=1;marginBottom=0;fillColor=#d5e8d4;strokeColor=#82b366;" parent="1" vertex="1">
          <mxGeometry x="-450" y="594" width="160" height="98" as="geometry" />
        </mxCell>
        <mxCell id="thgTIYZggOXa3E_JFyeE-2" value="+ field: type&#xa;+ field state" style="text;strokeColor=none;fillColor=none;align=left;verticalAlign=top;spacingLeft=4;spacingRight=4;overflow=hidden;rotatable=0;points=[[0,0.5],[1,0.5]];portConstraint=eastwest;" parent="thgTIYZggOXa3E_JFyeE-1" vertex="1">
          <mxGeometry y="26" width="160" height="44" as="geometry" />
        </mxCell>
        <mxCell id="thgTIYZggOXa3E_JFyeE-3" value="" style="line;strokeWidth=1;fillColor=none;align=left;verticalAlign=middle;spacingTop=-1;spacingLeft=3;spacingRight=3;rotatable=0;labelPosition=right;points=[];portConstraint=eastwest;" parent="thgTIYZggOXa3E_JFyeE-1" vertex="1">
          <mxGeometry y="70" width="160" height="8" as="geometry" />
        </mxCell>
        <mxCell id="thgTIYZggOXa3E_JFyeE-4" value="+ method(type): type" style="text;strokeColor=none;fillColor=none;align=left;verticalAlign=top;spacingLeft=4;spacingRight=4;overflow=hidden;rotatable=0;points=[[0,0.5],[1,0.5]];portConstraint=eastwest;" parent="thgTIYZggOXa3E_JFyeE-1" vertex="1">
          <mxGeometry y="78" width="160" height="20" as="geometry" />
        </mxCell>
        <mxCell id="thgTIYZggOXa3E_JFyeE-5" value="" style="endArrow=open;endFill=1;endSize=12;html=1;entryX=1.029;entryY=0.195;entryDx=0;entryDy=0;exitX=0;exitY=0.25;exitDx=0;exitDy=0;entryPerimeter=0;" parent="1" target="thgTIYZggOXa3E_JFyeE-2" edge="1">
          <mxGeometry width="160" relative="1" as="geometry">
            <mxPoint x="-110" y="630" as="sourcePoint" />
            <mxPoint x="-265.1999999999998" y="443.9939999999999" as="targetPoint" />
          </mxGeometry>
        </mxCell>
        <mxCell id="thgTIYZggOXa3E_JFyeE-6" value="" style="endArrow=diamondThin;endFill=1;endSize=24;html=1;entryX=0.5;entryY=0;entryDx=0;entryDy=0;exitX=1;exitY=0.5;exitDx=0;exitDy=0;" parent="1" source="thgTIYZggOXa3E_JFyeE-26" target="thgTIYZggOXa3E_JFyeE-1" edge="1">
          <mxGeometry width="160" relative="1" as="geometry">
            <mxPoint x="-636" y="377.42999999999984" as="sourcePoint" />
            <mxPoint x="60" y="620" as="targetPoint" />
            <Array as="points">
              <mxPoint x="-370" y="377" />
            </Array>
          </mxGeometry>
        </mxCell>
        <mxCell id="thgTIYZggOXa3E_JFyeE-7" value="CountDownWidget" style="swimlane;fontStyle=1;align=center;verticalAlign=top;childLayout=stackLayout;horizontal=1;startSize=26;horizontalStack=0;resizeParent=1;resizeParentMax=0;resizeLast=0;collapsible=1;marginBottom=0;fillColor=#dae8fc;strokeColor=#6c8ebf;" parent="1" vertex="1">
          <mxGeometry x="-800" y="460" width="160" height="60" as="geometry" />
        </mxCell>
        <mxCell id="thgTIYZggOXa3E_JFyeE-8" value="" style="line;strokeWidth=1;fillColor=none;align=left;verticalAlign=middle;spacingTop=-1;spacingLeft=3;spacingRight=3;rotatable=0;labelPosition=right;points=[];portConstraint=eastwest;" parent="thgTIYZggOXa3E_JFyeE-7" vertex="1">
          <mxGeometry y="26" width="160" height="34" as="geometry" />
        </mxCell>
        <mxCell id="thgTIYZggOXa3E_JFyeE-9" value="" style="endArrow=diamondThin;endFill=1;endSize=24;html=1;exitX=1;exitY=0.25;exitDx=0;exitDy=0;entryX=0.25;entryY=0;entryDx=0;entryDy=0;" parent="1" source="thgTIYZggOXa3E_JFyeE-7" target="thgTIYZggOXa3E_JFyeE-1" edge="1">
          <mxGeometry width="160" relative="1" as="geometry">
            <mxPoint x="-620" y="501" as="sourcePoint" />
            <mxPoint x="-440" y="470" as="targetPoint" />
            <Array as="points">
              <mxPoint x="-410" y="475" />
            </Array>
          </mxGeometry>
        </mxCell>
        <mxCell id="thgTIYZggOXa3E_JFyeE-10" value="TXCloudVideoView" style="swimlane;fontStyle=1;align=center;verticalAlign=top;childLayout=stackLayout;horizontal=1;startSize=26;horizontalStack=0;resizeParent=1;resizeParentMax=0;resizeLast=0;collapsible=1;marginBottom=0;fillColor=#d5e8d4;strokeColor=#82b366;" parent="1" vertex="1">
          <mxGeometry x="-800" y="550" width="160" height="60" as="geometry" />
        </mxCell>
        <mxCell id="thgTIYZggOXa3E_JFyeE-11" value="" style="line;strokeWidth=1;fillColor=none;align=left;verticalAlign=middle;spacingTop=-1;spacingLeft=3;spacingRight=3;rotatable=0;labelPosition=right;points=[];portConstraint=eastwest;" parent="thgTIYZggOXa3E_JFyeE-10" vertex="1">
          <mxGeometry y="26" width="160" height="34" as="geometry" />
        </mxCell>
        <mxCell id="thgTIYZggOXa3E_JFyeE-12" value="" style="endArrow=diamondThin;endFill=1;endSize=24;html=1;exitX=1;exitY=0;exitDx=0;exitDy=0;entryX=0;entryY=0;entryDx=0;entryDy=0;" parent="1" source="thgTIYZggOXa3E_JFyeE-10" target="thgTIYZggOXa3E_JFyeE-1" edge="1">
          <mxGeometry width="160" relative="1" as="geometry">
            <mxPoint x="-110" y="1030" as="sourcePoint" />
            <mxPoint x="-450" y="829" as="targetPoint" />
            <Array as="points">
              <mxPoint x="-450" y="550" />
            </Array>
          </mxGeometry>
        </mxCell>
        <mxCell id="thgTIYZggOXa3E_JFyeE-13" value="TUIBeautyWidget" style="swimlane;fontStyle=1;align=center;verticalAlign=top;childLayout=stackLayout;horizontal=1;startSize=26;horizontalStack=0;resizeParent=1;resizeParentMax=0;resizeLast=0;collapsible=1;marginBottom=0;fillColor=#e1d5e7;strokeColor=#9673a6;" parent="1" vertex="1">
          <mxGeometry x="-800" y="637" width="160" height="60" as="geometry" />
        </mxCell>
        <mxCell id="thgTIYZggOXa3E_JFyeE-14" value="" style="line;strokeWidth=1;fillColor=none;align=left;verticalAlign=middle;spacingTop=-1;spacingLeft=3;spacingRight=3;rotatable=0;labelPosition=right;points=[];portConstraint=eastwest;" parent="thgTIYZggOXa3E_JFyeE-13" vertex="1">
          <mxGeometry y="26" width="160" height="34" as="geometry" />
        </mxCell>
        <mxCell id="thgTIYZggOXa3E_JFyeE-15" value="" style="endArrow=diamondThin;endFill=1;endSize=24;html=1;entryX=0.016;entryY=0.179;entryDx=0;entryDy=0;entryPerimeter=0;exitX=1;exitY=0.5;exitDx=0;exitDy=0;" parent="1" source="thgTIYZggOXa3E_JFyeE-13" target="thgTIYZggOXa3E_JFyeE-3" edge="1">
          <mxGeometry width="160" relative="1" as="geometry">
            <mxPoint x="-640" y="647" as="sourcePoint" />
            <mxPoint x="-452.0799999999999" y="846.0039999999999" as="targetPoint" />
          </mxGeometry>
        </mxCell>
        <mxCell id="thgTIYZggOXa3E_JFyeE-16" value="TUIAudioEffectWidget" style="swimlane;fontStyle=1;align=center;verticalAlign=top;childLayout=stackLayout;horizontal=1;startSize=40;horizontalStack=0;resizeParent=1;resizeParentMax=0;resizeLast=0;collapsible=1;marginBottom=0;fillColor=#e1d5e7;strokeColor=#9673a6;" parent="1" vertex="1">
          <mxGeometry x="-800" y="720" width="160" height="74" as="geometry" />
        </mxCell>
        <mxCell id="thgTIYZggOXa3E_JFyeE-17" value="" style="line;strokeWidth=1;fillColor=none;align=left;verticalAlign=middle;spacingTop=-1;spacingLeft=3;spacingRight=3;rotatable=0;labelPosition=right;points=[];portConstraint=eastwest;" parent="thgTIYZggOXa3E_JFyeE-16" vertex="1">
          <mxGeometry y="40" width="160" height="34" as="geometry" />
        </mxCell>
        <mxCell id="thgTIYZggOXa3E_JFyeE-18" value="" style="endArrow=diamondThin;endFill=1;endSize=24;html=1;exitX=1;exitY=0.5;exitDx=0;exitDy=0;entryX=0;entryY=0.5;entryDx=0;entryDy=0;" parent="1" source="thgTIYZggOXa3E_JFyeE-16" target="thgTIYZggOXa3E_JFyeE-4" edge="1">
          <mxGeometry width="160" relative="1" as="geometry">
            <mxPoint x="-630" y="905" as="sourcePoint" />
            <mxPoint x="-450" y="860" as="targetPoint" />
            <Array as="points">
              <mxPoint x="-450" y="757" />
            </Array>
          </mxGeometry>
        </mxCell>
        <mxCell id="thgTIYZggOXa3E_JFyeE-19" value="ChatWidget" style="swimlane;fontStyle=1;align=center;verticalAlign=top;childLayout=stackLayout;horizontal=1;startSize=26;horizontalStack=0;resizeParent=1;resizeParentMax=0;resizeLast=0;collapsible=1;marginBottom=0;fillColor=#e1d5e7;strokeColor=#9673a6;" parent="1" vertex="1">
          <mxGeometry x="-800" y="820" width="160" height="60" as="geometry" />
        </mxCell>
        <mxCell id="thgTIYZggOXa3E_JFyeE-20" value="" style="line;strokeWidth=1;fillColor=none;align=left;verticalAlign=middle;spacingTop=-1;spacingLeft=3;spacingRight=3;rotatable=0;labelPosition=right;points=[];portConstraint=eastwest;" parent="thgTIYZggOXa3E_JFyeE-19" vertex="1">
          <mxGeometry y="26" width="160" height="34" as="geometry" />
        </mxCell>
        <mxCell id="thgTIYZggOXa3E_JFyeE-21" value="TUIPusherActivity" style="swimlane;fontStyle=1;align=center;verticalAlign=top;childLayout=stackLayout;horizontal=1;startSize=26;horizontalStack=0;resizeParent=1;resizeParentMax=0;resizeLast=0;collapsible=1;marginBottom=0;" parent="1" vertex="1">
          <mxGeometry x="-180" y="610" width="170" height="150" as="geometry" />
        </mxCell>
        <mxCell id="thgTIYZggOXa3E_JFyeE-22" value="+ field: TUIPusherService" style="text;strokeColor=none;fillColor=none;align=left;verticalAlign=top;spacingLeft=4;spacingRight=4;overflow=hidden;rotatable=0;points=[[0,0.5],[1,0.5]];portConstraint=eastwest;" parent="thgTIYZggOXa3E_JFyeE-21" vertex="1">
          <mxGeometry y="26" width="170" height="34" as="geometry" />
        </mxCell>
        <mxCell id="thgTIYZggOXa3E_JFyeE-23" value="" style="line;strokeWidth=1;fillColor=none;align=left;verticalAlign=middle;spacingTop=-1;spacingLeft=3;spacingRight=3;rotatable=0;labelPosition=right;points=[];portConstraint=eastwest;" parent="thgTIYZggOXa3E_JFyeE-21" vertex="1">
          <mxGeometry y="60" width="170" height="8" as="geometry" />
        </mxCell>
        <mxCell id="thgTIYZggOXa3E_JFyeE-24" value="+ startPush(url)&#xa;+ stopPush()&#xa;+ startPKWithUser(userid)&#xa;+ stopPK()" style="text;strokeColor=none;fillColor=none;align=left;verticalAlign=top;spacingLeft=4;spacingRight=4;overflow=hidden;rotatable=0;points=[[0,0.5],[1,0.5]];portConstraint=eastwest;" parent="thgTIYZggOXa3E_JFyeE-21" vertex="1">
          <mxGeometry y="68" width="170" height="82" as="geometry" />
        </mxCell>
        <mxCell id="thgTIYZggOXa3E_JFyeE-25" value="" style="endArrow=diamondThin;endFill=1;endSize=24;html=1;exitX=1;exitY=0.5;exitDx=0;exitDy=0;" parent="1" source="thgTIYZggOXa3E_JFyeE-19" edge="1">
          <mxGeometry width="160" relative="1" as="geometry">
            <mxPoint x="-640" y="854" as="sourcePoint" />
            <mxPoint x="-370" y="680" as="targetPoint" />
            <Array as="points">
              <mxPoint x="-370" y="848" />
            </Array>
          </mxGeometry>
        </mxCell>
        <mxCell id="thgTIYZggOXa3E_JFyeE-26" value="PreviewWidget" style="swimlane;fontStyle=1;align=center;verticalAlign=top;childLayout=stackLayout;horizontal=1;startSize=26;horizontalStack=0;resizeParent=1;resizeParentMax=0;resizeLast=0;collapsible=1;marginBottom=0;fillColor=#ffe6cc;strokeColor=#d79b00;" parent="1" vertex="1">
          <mxGeometry x="-800" y="350" width="160" height="60" as="geometry" />
        </mxCell>
        <mxCell id="thgTIYZggOXa3E_JFyeE-27" value="" style="line;strokeWidth=1;fillColor=none;align=left;verticalAlign=middle;spacingTop=-1;spacingLeft=3;spacingRight=3;rotatable=0;labelPosition=right;points=[];portConstraint=eastwest;" parent="thgTIYZggOXa3E_JFyeE-26" vertex="1">
          <mxGeometry y="26" width="160" height="34" as="geometry" />
        </mxCell>
        <mxCell id="thgTIYZggOXa3E_JFyeE-28" value="TUIPlayerActivity" style="swimlane;fontStyle=1;align=center;verticalAlign=top;childLayout=stackLayout;horizontal=1;startSize=26;horizontalStack=0;resizeParent=1;resizeParentMax=0;resizeLast=0;collapsible=1;marginBottom=0;" parent="1" vertex="1">
          <mxGeometry x="-560" y="1120" width="170" height="110" as="geometry" />
        </mxCell>
        <mxCell id="thgTIYZggOXa3E_JFyeE-29" value="+ field: TUIPlayerService" style="text;strokeColor=none;fillColor=none;align=left;verticalAlign=top;spacingLeft=4;spacingRight=4;overflow=hidden;rotatable=0;points=[[0,0.5],[1,0.5]];portConstraint=eastwest;" parent="thgTIYZggOXa3E_JFyeE-28" vertex="1">
          <mxGeometry y="26" width="170" height="34" as="geometry" />
        </mxCell>
        <mxCell id="thgTIYZggOXa3E_JFyeE-30" value="" style="line;strokeWidth=1;fillColor=none;align=left;verticalAlign=middle;spacingTop=-1;spacingLeft=3;spacingRight=3;rotatable=0;labelPosition=right;points=[];portConstraint=eastwest;" parent="thgTIYZggOXa3E_JFyeE-28" vertex="1">
          <mxGeometry y="60" width="170" height="8" as="geometry" />
        </mxCell>
        <mxCell id="thgTIYZggOXa3E_JFyeE-31" value="+ startPlay(url)&#xa;+ stopPlay()" style="text;strokeColor=none;fillColor=none;align=left;verticalAlign=top;spacingLeft=4;spacingRight=4;overflow=hidden;rotatable=0;points=[[0,0.5],[1,0.5]];portConstraint=eastwest;" parent="thgTIYZggOXa3E_JFyeE-28" vertex="1">
          <mxGeometry y="68" width="170" height="42" as="geometry" />
        </mxCell>
        <mxCell id="thgTIYZggOXa3E_JFyeE-32" value="ShowLivePlayerActivity" style="swimlane;fontStyle=1;align=center;verticalAlign=top;childLayout=stackLayout;horizontal=1;startSize=26;horizontalStack=0;resizeParent=1;resizeParentMax=0;resizeLast=0;collapsible=1;marginBottom=0;" parent="1" vertex="1">
          <mxGeometry x="-560" y="1310" width="170" height="110" as="geometry" />
        </mxCell>
        <mxCell id="thgTIYZggOXa3E_JFyeE-33" value="+ field: TUIPlayerService" style="text;strokeColor=none;fillColor=none;align=left;verticalAlign=top;spacingLeft=4;spacingRight=4;overflow=hidden;rotatable=0;points=[[0,0.5],[1,0.5]];portConstraint=eastwest;" parent="thgTIYZggOXa3E_JFyeE-32" vertex="1">
          <mxGeometry y="26" width="170" height="34" as="geometry" />
        </mxCell>
        <mxCell id="thgTIYZggOXa3E_JFyeE-34" value="" style="line;strokeWidth=1;fillColor=none;align=left;verticalAlign=middle;spacingTop=-1;spacingLeft=3;spacingRight=3;rotatable=0;labelPosition=right;points=[];portConstraint=eastwest;" parent="thgTIYZggOXa3E_JFyeE-32" vertex="1">
          <mxGeometry y="60" width="170" height="8" as="geometry" />
        </mxCell>
        <mxCell id="thgTIYZggOXa3E_JFyeE-35" value="+ startPlay(url)&#xa;+ stopPlay()" style="text;strokeColor=none;fillColor=none;align=left;verticalAlign=top;spacingLeft=4;spacingRight=4;overflow=hidden;rotatable=0;points=[[0,0.5],[1,0.5]];portConstraint=eastwest;" parent="thgTIYZggOXa3E_JFyeE-32" vertex="1">
          <mxGeometry y="68" width="170" height="42" as="geometry" />
        </mxCell>
        <mxCell id="thgTIYZggOXa3E_JFyeE-36" value="Extends" style="endArrow=block;endSize=16;endFill=0;html=1;exitX=0.5;exitY=0;exitDx=0;exitDy=0;" parent="1" source="thgTIYZggOXa3E_JFyeE-32" edge="1">
          <mxGeometry width="160" relative="1" as="geometry">
            <mxPoint x="-620" y="1320" as="sourcePoint" />
            <mxPoint x="-475" y="1231" as="targetPoint" />
          </mxGeometry>
        </mxCell>
        <mxCell id="thgTIYZggOXa3E_JFyeE-37" value="LiveShowView" style="swimlane;fontStyle=1;align=center;verticalAlign=top;childLayout=stackLayout;horizontal=1;startSize=26;horizontalStack=0;resizeParent=1;resizeParentMax=0;resizeLast=0;collapsible=1;marginBottom=0;" parent="1" vertex="1">
          <mxGeometry x="-750" y="1470" width="170" height="76" as="geometry" />
        </mxCell>
        <mxCell id="thgTIYZggOXa3E_JFyeE-38" value="" style="line;strokeWidth=1;fillColor=none;align=left;verticalAlign=middle;spacingTop=-1;spacingLeft=3;spacingRight=3;rotatable=0;labelPosition=right;points=[];portConstraint=eastwest;" parent="thgTIYZggOXa3E_JFyeE-37" vertex="1">
          <mxGeometry y="26" width="170" height="8" as="geometry" />
        </mxCell>
        <mxCell id="thgTIYZggOXa3E_JFyeE-39" value="+ shareQCBitmap()" style="text;strokeColor=none;fillColor=none;align=left;verticalAlign=top;spacingLeft=4;spacingRight=4;overflow=hidden;rotatable=0;points=[[0,0.5],[1,0.5]];portConstraint=eastwest;" parent="thgTIYZggOXa3E_JFyeE-37" vertex="1">
          <mxGeometry y="34" width="170" height="42" as="geometry" />
        </mxCell>
        <mxCell id="thgTIYZggOXa3E_JFyeE-40" value="OtherView" style="swimlane;fontStyle=1;align=center;verticalAlign=top;childLayout=stackLayout;horizontal=1;startSize=26;horizontalStack=0;resizeParent=1;resizeParentMax=0;resizeLast=0;collapsible=1;marginBottom=0;" parent="1" vertex="1">
          <mxGeometry x="-380" y="1470" width="170" height="34" as="geometry" />
        </mxCell>
        <mxCell id="thgTIYZggOXa3E_JFyeE-41" value="" style="line;strokeWidth=1;fillColor=none;align=left;verticalAlign=middle;spacingTop=-1;spacingLeft=3;spacingRight=3;rotatable=0;labelPosition=right;points=[];portConstraint=eastwest;" parent="thgTIYZggOXa3E_JFyeE-40" vertex="1">
          <mxGeometry y="26" width="170" height="8" as="geometry" />
        </mxCell>
        <mxCell id="thgTIYZggOXa3E_JFyeE-42" value="" style="endArrow=open;endFill=1;endSize=12;html=1;entryX=0.5;entryY=0;entryDx=0;entryDy=0;exitX=0.5;exitY=0.976;exitDx=0;exitDy=0;exitPerimeter=0;" parent="1" source="thgTIYZggOXa3E_JFyeE-35" target="thgTIYZggOXa3E_JFyeE-37" edge="1">
          <mxGeometry width="160" relative="1" as="geometry">
            <mxPoint x="-620" y="1320" as="sourcePoint" />
            <mxPoint x="-460" y="1320" as="targetPoint" />
            <Array as="points">
              <mxPoint x="-475" y="1440" />
              <mxPoint x="-665" y="1440" />
            </Array>
          </mxGeometry>
        </mxCell>
        <mxCell id="thgTIYZggOXa3E_JFyeE-43" value="" style="endArrow=open;endFill=1;endSize=12;html=1;exitX=0.5;exitY=0.976;exitDx=0;exitDy=0;exitPerimeter=0;entryX=0.5;entryY=0;entryDx=0;entryDy=0;" parent="1" source="thgTIYZggOXa3E_JFyeE-35" target="thgTIYZggOXa3E_JFyeE-40" edge="1">
          <mxGeometry width="160" relative="1" as="geometry">
            <mxPoint x="-620" y="1320" as="sourcePoint" />
            <mxPoint x="-460" y="1320" as="targetPoint" />
            <Array as="points">
              <mxPoint x="-475" y="1440" />
              <mxPoint x="-295" y="1440" />
            </Array>
          </mxGeometry>
        </mxCell>
      </root>
    </mxGraphModel>
  </diagram>
</mxfile>
